<svg width="133" height="38" viewBox="0 0 133 38" fill="none" xmlns="http://www.w3.org/2000/svg">
<path d="M34.287 11.2127L31.8089 10.3723L31.749 10.3532L28.95 9.39543H28.9237L30.0419 4.97067L24.1685 6.96037C24.0268 7.00869 23.8994 7.09157 23.7979 7.20152C23.6963 7.31148 23.6237 7.44503 23.5867 7.59009L22.198 13.0779V13.1162L22.0567 13.6478V13.6909L19.3104 24.4846L19.2745 24.4726L13.9112 22.6553L4.73362 19.5451L4.67616 19.5259L15.6447 15.8027L16.7892 11.2822V11.2463L17.2848 9.28289L14.1506 10.3532L14.0931 10.3723L0.555489 14.9575C0.393831 15.0124 0.253379 15.1165 0.15378 15.2551C0.0541797 15.3938 0.000413073 15.5601 0 15.7309V23.9028L12.5224 28.1456L13.9854 28.6412L17.8858 29.9629H17.9217V29.9988L17.019 33.564L22.7319 31.6293L22.7918 31.6078C22.9665 31.5511 23.124 31.4512 23.2496 31.3172C23.3752 31.1832 23.4648 31.0196 23.5101 30.8416L24.6642 26.278L25.0137 24.8988L27.5422 14.912V14.8761H27.5685L32.9055 16.6838L41.0702 19.4493L41.0128 19.4684L31.3659 22.7463L30.0107 28.1001L29.7162 29.2661L31.5838 28.634L45.1765 24.0273C45.3386 23.973 45.4794 23.8691 45.5791 23.7303C45.6788 23.5915 45.7323 23.4248 45.732 23.2539V15.0844L34.287 11.2127ZM22.9498 13.3676L22.89 13.3461L22.9498 13.3269L23.0073 13.3461L22.9498 13.3676ZM28.4161 11.5144L28.3826 11.5264V11.4833L28.4137 11.4713L28.4161 11.5144Z" fill="#0D1117"/>
<path d="M70.5781 8.14078C70.5781 13.5041 68.3275 16.2816 62.9162 16.2816H57.1961V0H62.9162C68.3322 0 70.5781 2.7535 70.5781 8.14078ZM67.4655 8.14078C67.4655 4.19011 66.6514 3.11265 62.9162 3.11265H60.3088V13.1689H62.9162C66.6562 13.1689 67.4655 11.9957 67.4655 8.14078Z" fill="white"/>
<path d="M83.5603 11.3013H75.9942C76.2576 12.4985 77.0477 13.1689 79.2984 13.1689C80.4592 13.186 81.6175 13.0573 82.7463 12.7858V15.8506C81.5418 16.1577 80.3018 16.3026 79.059 16.2816C73.5256 16.2816 72.7331 12.3788 72.7331 10.1281C72.7331 6.70418 74.22 3.95068 78.1946 3.95068C82.0734 3.95068 83.5579 6.51264 83.5579 9.86472L83.5603 11.3013ZM75.8745 8.90698H80.4237C80.328 7.5422 79.6336 7.06333 78.1491 7.06333C76.7125 7.06333 76.0181 7.61403 75.8745 8.90698Z" fill="white"/>
<path d="M97.0405 3.95068L93.2335 16.2816H88.4448L84.6378 3.95068H87.942L90.6476 12.8816H91.0307L93.7363 3.95068H97.0405Z" fill="white"/>
<path d="M103.024 13.1689V16.2816H99.9113V13.1689H103.024Z" fill="#0D1117"/>
<path d="M75.5009 20.8739V37.1555H72.3883V28.3203H72.0148L68.0881 35.9343H64.6402L60.7135 28.3203H60.3304V37.1555H57.2177V20.8739H60.3304L66.1726 32.1992H66.5557L72.3979 20.8739H75.5009Z" fill="white"/>
<path d="M90.1783 34.0428V37.1555H85.5093V35.9583C84.9107 36.5808 83.9769 37.1555 82.1812 37.1555C79.2601 37.1555 77.8953 35.2879 77.8953 33.0851C77.8953 30.8823 79.2601 29.0147 82.1812 29.0147C83.9769 29.0147 84.9107 29.5654 85.5093 30.2119V27.9372H79.284V24.8246H88.622V34.0428H90.1783ZM85.5093 33.0851C85.5093 32.1273 84.8868 31.84 83.2586 31.84C81.6305 31.84 81.0079 32.1273 81.0079 33.0851C81.0079 34.0428 81.6305 34.3301 83.2586 34.3301C84.8868 34.3301 85.5093 34.0428 85.5093 33.0851Z" fill="white"/>
<path d="M100.163 27.9372H95.5656V37.1555H92.4529V24.8246H100.163V27.9372Z" fill="white"/>
<path d="M105.55 20.3951V37.1555H102.437V20.3951H105.55Z" fill="white"/>
<path d="M107.705 30.9781C107.705 27.4584 109.788 24.8246 113.667 24.8246C117.546 24.8246 119.629 27.4584 119.629 30.9781C119.629 34.4977 117.546 37.1555 113.667 37.1555C109.788 37.1555 107.705 34.4977 107.705 30.9781ZM116.516 30.9781C116.516 28.5837 115.774 27.9372 113.667 27.9372C111.56 27.9372 110.818 28.5837 110.818 30.9781C110.818 33.3724 111.56 34.0428 113.667 34.0428C115.774 34.0428 116.516 33.3724 116.516 30.9781Z" fill="white"/>
<path d="M132.917 37.1555H129.805V27.9372H124.777V37.1555H121.664V24.8246H132.917V37.1555Z" fill="white"/>
</svg>
